<mxfile host="app.diagrams.net" modified="2024-04-07T09:46:53.345Z" agent="Mozilla/5.0 (Windows NT 10.0; Win64; x64) AppleWebKit/537.36 (KHTML, like Gecko) Chrome/123.0.0.0 Safari/537.36" etag="iRdon1ZC-oHDMh_iX6V8" version="24.2.2" type="device">
  <diagram name="Page-1" id="ehm34teeJ-FhuhimR9EA">
    <mxGraphModel dx="992" dy="438" grid="1" gridSize="10" guides="1" tooltips="1" connect="1" arrows="1" fold="1" page="1" pageScale="1" pageWidth="850" pageHeight="1100" math="0" shadow="0">
      <root>
        <mxCell id="0" />
        <mxCell id="1" parent="0" />
        <mxCell id="0bee53zsupZnmuSa7WSI-1" value="Actor / User" style="shape=umlActor;verticalLabelPosition=bottom;verticalAlign=top;html=1;" vertex="1" parent="1">
          <mxGeometry x="170" y="70" width="30" height="60" as="geometry" />
        </mxCell>
        <mxCell id="0bee53zsupZnmuSa7WSI-4" value="WebApp" style="shape=umlBoundary;whiteSpace=wrap;html=1;" vertex="1" parent="1">
          <mxGeometry x="310" y="60" width="100" height="80" as="geometry" />
        </mxCell>
        <mxCell id="0bee53zsupZnmuSa7WSI-5" value="Control" style="ellipse;shape=umlControl;whiteSpace=wrap;html=1;" vertex="1" parent="1">
          <mxGeometry x="540" y="60" width="70" height="80" as="geometry" />
        </mxCell>
        <mxCell id="0bee53zsupZnmuSa7WSI-6" value="Database" style="ellipse;shape=umlEntity;whiteSpace=wrap;html=1;" vertex="1" parent="1">
          <mxGeometry x="710" y="65" width="70" height="70" as="geometry" />
        </mxCell>
        <mxCell id="0bee53zsupZnmuSa7WSI-7" value="" style="endArrow=none;dashed=1;html=1;rounded=0;" edge="1" parent="1" source="0bee53zsupZnmuSa7WSI-12" target="0bee53zsupZnmuSa7WSI-1">
          <mxGeometry width="50" height="50" relative="1" as="geometry">
            <mxPoint x="180" y="650" as="sourcePoint" />
            <mxPoint x="180" y="160" as="targetPoint" />
          </mxGeometry>
        </mxCell>
        <mxCell id="0bee53zsupZnmuSa7WSI-8" value="" style="endArrow=none;dashed=1;html=1;rounded=0;entryX=0.52;entryY=1.015;entryDx=0;entryDy=0;entryPerimeter=0;" edge="1" parent="1" source="0bee53zsupZnmuSa7WSI-35" target="0bee53zsupZnmuSa7WSI-4">
          <mxGeometry width="50" height="50" relative="1" as="geometry">
            <mxPoint x="360" y="650" as="sourcePoint" />
            <mxPoint x="640" y="260" as="targetPoint" />
          </mxGeometry>
        </mxCell>
        <mxCell id="0bee53zsupZnmuSa7WSI-9" value="" style="endArrow=none;dashed=1;html=1;rounded=0;entryX=0.571;entryY=1;entryDx=0;entryDy=0;entryPerimeter=0;" edge="1" parent="1" source="0bee53zsupZnmuSa7WSI-15" target="0bee53zsupZnmuSa7WSI-5">
          <mxGeometry width="50" height="50" relative="1" as="geometry">
            <mxPoint x="580" y="650" as="sourcePoint" />
            <mxPoint x="600" y="170" as="targetPoint" />
          </mxGeometry>
        </mxCell>
        <mxCell id="0bee53zsupZnmuSa7WSI-10" value="" style="endArrow=none;dashed=1;html=1;rounded=0;entryX=0.5;entryY=1;entryDx=0;entryDy=0;" edge="1" parent="1" target="0bee53zsupZnmuSa7WSI-6">
          <mxGeometry width="50" height="50" relative="1" as="geometry">
            <mxPoint x="710" y="3640" as="sourcePoint" />
            <mxPoint x="780" y="240" as="targetPoint" />
          </mxGeometry>
        </mxCell>
        <mxCell id="0bee53zsupZnmuSa7WSI-11" value="" style="endArrow=none;dashed=1;html=1;rounded=0;entryX=0;entryY=1;entryDx=0;entryDy=-5;entryPerimeter=0;" edge="1" parent="1" source="0bee53zsupZnmuSa7WSI-20" target="0bee53zsupZnmuSa7WSI-12">
          <mxGeometry width="50" height="50" relative="1" as="geometry">
            <mxPoint x="180" y="650" as="sourcePoint" />
            <mxPoint x="185" y="130" as="targetPoint" />
          </mxGeometry>
        </mxCell>
        <mxCell id="0bee53zsupZnmuSa7WSI-12" value="" style="html=1;points=[[0,0,0,0,5],[0,1,0,0,-5],[1,0,0,0,5],[1,1,0,0,-5]];perimeter=orthogonalPerimeter;outlineConnect=0;targetShapes=umlLifeline;portConstraint=eastwest;newEdgeStyle={&quot;curved&quot;:0,&quot;rounded&quot;:0};" vertex="1" parent="1">
          <mxGeometry x="180" y="200" width="10" height="80" as="geometry" />
        </mxCell>
        <mxCell id="0bee53zsupZnmuSa7WSI-13" value="" style="html=1;points=[[0,0,0,0,5],[0,1,0,0,-5],[1,0,0,0,5],[1,1,0,0,-5]];perimeter=orthogonalPerimeter;outlineConnect=0;targetShapes=umlLifeline;portConstraint=eastwest;newEdgeStyle={&quot;curved&quot;:0,&quot;rounded&quot;:0};" vertex="1" parent="1">
          <mxGeometry x="350" y="200" width="10" height="80" as="geometry" />
        </mxCell>
        <mxCell id="0bee53zsupZnmuSa7WSI-14" value="Register" style="html=1;verticalAlign=bottom;startArrow=oval;endArrow=block;startSize=8;curved=0;rounded=0;entryX=0;entryY=0;entryDx=0;entryDy=5;" edge="1" target="0bee53zsupZnmuSa7WSI-13" parent="1" source="0bee53zsupZnmuSa7WSI-12">
          <mxGeometry relative="1" as="geometry">
            <mxPoint x="280" y="205" as="sourcePoint" />
          </mxGeometry>
        </mxCell>
        <mxCell id="0bee53zsupZnmuSa7WSI-16" value="Check Credentials" style="html=1;verticalAlign=bottom;startArrow=oval;endArrow=block;startSize=8;curved=0;rounded=0;entryX=0;entryY=0;entryDx=0;entryDy=5;" edge="1" target="0bee53zsupZnmuSa7WSI-15" parent="1" source="0bee53zsupZnmuSa7WSI-13">
          <mxGeometry relative="1" as="geometry">
            <mxPoint x="500" y="205" as="sourcePoint" />
          </mxGeometry>
        </mxCell>
        <mxCell id="0bee53zsupZnmuSa7WSI-19" value="" style="html=1;points=[[0,0,0,0,5],[0,1,0,0,-5],[1,0,0,0,5],[1,1,0,0,-5]];perimeter=orthogonalPerimeter;outlineConnect=0;targetShapes=umlLifeline;portConstraint=eastwest;newEdgeStyle={&quot;curved&quot;:0,&quot;rounded&quot;:0};" vertex="1" parent="1">
          <mxGeometry x="570" y="280" width="10" height="30" as="geometry" />
        </mxCell>
        <mxCell id="0bee53zsupZnmuSa7WSI-21" value="Invalid Credencials" style="endArrow=open;endSize=12;dashed=1;html=1;rounded=0;exitX=0;exitY=1;exitDx=0;exitDy=-5;exitPerimeter=0;" edge="1" parent="1" source="0bee53zsupZnmuSa7WSI-19" target="0bee53zsupZnmuSa7WSI-20">
          <mxGeometry width="160" relative="1" as="geometry">
            <mxPoint x="420" y="350" as="sourcePoint" />
            <mxPoint x="230" y="310" as="targetPoint" />
          </mxGeometry>
        </mxCell>
        <mxCell id="0bee53zsupZnmuSa7WSI-25" value="" style="html=1;points=[[0,0,0,0,5],[0,1,0,0,-5],[1,0,0,0,5],[1,1,0,0,-5]];perimeter=orthogonalPerimeter;outlineConnect=0;targetShapes=umlLifeline;portConstraint=eastwest;newEdgeStyle={&quot;curved&quot;:0,&quot;rounded&quot;:0};" vertex="1" parent="1">
          <mxGeometry x="570" y="320" width="10" height="30" as="geometry" />
        </mxCell>
        <mxCell id="0bee53zsupZnmuSa7WSI-27" value="" style="endArrow=none;dashed=1;html=1;rounded=0;entryX=0.571;entryY=1;entryDx=0;entryDy=0;entryPerimeter=0;" edge="1" parent="1" source="0bee53zsupZnmuSa7WSI-32">
          <mxGeometry width="50" height="50" relative="1" as="geometry">
            <mxPoint x="584.29" y="650" as="sourcePoint" />
            <mxPoint x="580" y="240" as="targetPoint" />
          </mxGeometry>
        </mxCell>
        <mxCell id="0bee53zsupZnmuSa7WSI-15" value="" style="html=1;points=[[0,0,0,0,5],[0,1,0,0,-5],[1,0,0,0,5],[1,1,0,0,-5]];perimeter=orthogonalPerimeter;outlineConnect=0;targetShapes=umlLifeline;portConstraint=eastwest;newEdgeStyle={&quot;curved&quot;:0,&quot;rounded&quot;:0};" vertex="1" parent="1">
          <mxGeometry x="570" y="210" width="10" height="30" as="geometry" />
        </mxCell>
        <mxCell id="0bee53zsupZnmuSa7WSI-29" value="" style="html=1;points=[[0,0,0,0,5],[0,1,0,0,-5],[1,0,0,0,5],[1,1,0,0,-5]];perimeter=orthogonalPerimeter;outlineConnect=0;targetShapes=umlLifeline;portConstraint=eastwest;newEdgeStyle={&quot;curved&quot;:0,&quot;rounded&quot;:0};" vertex="1" parent="1">
          <mxGeometry x="740" y="320" width="10" height="30" as="geometry" />
        </mxCell>
        <mxCell id="0bee53zsupZnmuSa7WSI-30" value="Register if valid" style="html=1;verticalAlign=bottom;startArrow=oval;endArrow=block;startSize=8;curved=0;rounded=0;entryX=0;entryY=0;entryDx=0;entryDy=5;exitX=1;exitY=0;exitDx=0;exitDy=5;exitPerimeter=0;" edge="1" target="0bee53zsupZnmuSa7WSI-29" parent="1" source="0bee53zsupZnmuSa7WSI-25">
          <mxGeometry relative="1" as="geometry">
            <mxPoint x="670" y="325" as="sourcePoint" />
          </mxGeometry>
        </mxCell>
        <mxCell id="0bee53zsupZnmuSa7WSI-31" value="" style="endArrow=none;dashed=1;html=1;rounded=0;entryX=0;entryY=1;entryDx=0;entryDy=-5;entryPerimeter=0;" edge="1" parent="1" source="0bee53zsupZnmuSa7WSI-38" target="0bee53zsupZnmuSa7WSI-20">
          <mxGeometry width="50" height="50" relative="1" as="geometry">
            <mxPoint x="180" y="650" as="sourcePoint" />
            <mxPoint x="180" y="275" as="targetPoint" />
          </mxGeometry>
        </mxCell>
        <mxCell id="0bee53zsupZnmuSa7WSI-20" value="" style="html=1;points=[[0,0,0,0,5],[0,1,0,0,-5],[1,0,0,0,5],[1,1,0,0,-5]];perimeter=orthogonalPerimeter;outlineConnect=0;targetShapes=umlLifeline;portConstraint=eastwest;newEdgeStyle={&quot;curved&quot;:0,&quot;rounded&quot;:0};" vertex="1" parent="1">
          <mxGeometry x="180" y="300" width="10" height="30" as="geometry" />
        </mxCell>
        <mxCell id="0bee53zsupZnmuSa7WSI-33" value="" style="endArrow=none;dashed=1;html=1;rounded=0;entryX=0.571;entryY=1;entryDx=0;entryDy=0;entryPerimeter=0;" edge="1" parent="1" source="0bee53zsupZnmuSa7WSI-54" target="0bee53zsupZnmuSa7WSI-32">
          <mxGeometry width="50" height="50" relative="1" as="geometry">
            <mxPoint x="576" y="971.1034314385776" as="sourcePoint" />
            <mxPoint x="580" y="240" as="targetPoint" />
          </mxGeometry>
        </mxCell>
        <mxCell id="0bee53zsupZnmuSa7WSI-32" value="" style="html=1;points=[[0,0,0,0,5],[0,1,0,0,-5],[1,0,0,0,5],[1,1,0,0,-5]];perimeter=orthogonalPerimeter;outlineConnect=0;targetShapes=umlLifeline;portConstraint=eastwest;newEdgeStyle={&quot;curved&quot;:0,&quot;rounded&quot;:0};" vertex="1" parent="1">
          <mxGeometry x="570" y="360" width="10" height="30" as="geometry" />
        </mxCell>
        <mxCell id="0bee53zsupZnmuSa7WSI-34" value="" style="endArrow=none;dashed=1;html=1;rounded=0;entryX=0.52;entryY=1.015;entryDx=0;entryDy=0;entryPerimeter=0;" edge="1" parent="1" source="0bee53zsupZnmuSa7WSI-57" target="0bee53zsupZnmuSa7WSI-35">
          <mxGeometry width="50" height="50" relative="1" as="geometry">
            <mxPoint x="360" y="960" as="sourcePoint" />
            <mxPoint x="362" y="141" as="targetPoint" />
          </mxGeometry>
        </mxCell>
        <mxCell id="0bee53zsupZnmuSa7WSI-35" value="" style="html=1;points=[[0,0,0,0,5],[0,1,0,0,-5],[1,0,0,0,5],[1,1,0,0,-5]];perimeter=orthogonalPerimeter;outlineConnect=0;targetShapes=umlLifeline;portConstraint=eastwest;newEdgeStyle={&quot;curved&quot;:0,&quot;rounded&quot;:0};" vertex="1" parent="1">
          <mxGeometry x="355" y="360" width="10" height="40" as="geometry" />
        </mxCell>
        <mxCell id="0bee53zsupZnmuSa7WSI-36" value="Log Actor if registered successfully" style="html=1;verticalAlign=bottom;endArrow=open;dashed=1;endSize=8;curved=0;rounded=0;" edge="1" parent="1" source="0bee53zsupZnmuSa7WSI-32">
          <mxGeometry relative="1" as="geometry">
            <mxPoint x="440" y="360" as="sourcePoint" />
            <mxPoint x="360" y="360" as="targetPoint" />
          </mxGeometry>
        </mxCell>
        <mxCell id="0bee53zsupZnmuSa7WSI-37" value="" style="endArrow=none;dashed=1;html=1;rounded=0;entryX=0;entryY=1;entryDx=0;entryDy=-5;entryPerimeter=0;" edge="1" parent="1" source="0bee53zsupZnmuSa7WSI-45" target="0bee53zsupZnmuSa7WSI-38">
          <mxGeometry width="50" height="50" relative="1" as="geometry">
            <mxPoint x="180" y="650" as="sourcePoint" />
            <mxPoint x="180" y="325" as="targetPoint" />
          </mxGeometry>
        </mxCell>
        <mxCell id="0bee53zsupZnmuSa7WSI-38" value="" style="html=1;points=[[0,0,0,0,5],[0,1,0,0,-5],[1,0,0,0,5],[1,1,0,0,-5]];perimeter=orthogonalPerimeter;outlineConnect=0;targetShapes=umlLifeline;portConstraint=eastwest;newEdgeStyle={&quot;curved&quot;:0,&quot;rounded&quot;:0};" vertex="1" parent="1">
          <mxGeometry x="180" y="410" width="10" height="40" as="geometry" />
        </mxCell>
        <mxCell id="0bee53zsupZnmuSa7WSI-41" value="" style="html=1;points=[[0,0,0,0,5],[0,1,0,0,-5],[1,0,0,0,5],[1,1,0,0,-5]];perimeter=orthogonalPerimeter;outlineConnect=0;targetShapes=umlLifeline;portConstraint=eastwest;newEdgeStyle={&quot;curved&quot;:0,&quot;rounded&quot;:0};" vertex="1" parent="1">
          <mxGeometry x="355" y="420" width="10" height="30" as="geometry" />
        </mxCell>
        <mxCell id="0bee53zsupZnmuSa7WSI-42" value="Log out" style="html=1;verticalAlign=bottom;endArrow=block;curved=0;rounded=0;entryX=0;entryY=0;entryDx=0;entryDy=5;" edge="1" target="0bee53zsupZnmuSa7WSI-41" parent="1" source="0bee53zsupZnmuSa7WSI-38">
          <mxGeometry relative="1" as="geometry">
            <mxPoint x="285" y="425" as="sourcePoint" />
          </mxGeometry>
        </mxCell>
        <mxCell id="0bee53zsupZnmuSa7WSI-43" value="Log actor out" style="html=1;verticalAlign=bottom;endArrow=open;dashed=1;endSize=8;curved=0;rounded=0;exitX=0;exitY=1;exitDx=0;exitDy=-5;" edge="1" source="0bee53zsupZnmuSa7WSI-41" parent="1" target="0bee53zsupZnmuSa7WSI-38">
          <mxGeometry relative="1" as="geometry">
            <mxPoint x="285" y="495" as="targetPoint" />
          </mxGeometry>
        </mxCell>
        <mxCell id="0bee53zsupZnmuSa7WSI-44" value="" style="endArrow=none;dashed=1;html=1;rounded=0;" edge="1" parent="1" source="0bee53zsupZnmuSa7WSI-60" target="0bee53zsupZnmuSa7WSI-45">
          <mxGeometry width="50" height="50" relative="1" as="geometry">
            <mxPoint x="180" y="960" as="sourcePoint" />
            <mxPoint x="180" y="445" as="targetPoint" />
          </mxGeometry>
        </mxCell>
        <mxCell id="0bee53zsupZnmuSa7WSI-45" value="" style="html=1;points=[[0,0,0,0,5],[0,1,0,0,-5],[1,0,0,0,5],[1,1,0,0,-5]];perimeter=orthogonalPerimeter;outlineConnect=0;targetShapes=umlLifeline;portConstraint=eastwest;newEdgeStyle={&quot;curved&quot;:0,&quot;rounded&quot;:0};" vertex="1" parent="1">
          <mxGeometry x="175" y="490" width="10" height="40" as="geometry" />
        </mxCell>
        <mxCell id="0bee53zsupZnmuSa7WSI-46" value="" style="html=1;points=[[0,0,0,0,5],[0,1,0,0,-5],[1,0,0,0,5],[1,1,0,0,-5]];perimeter=orthogonalPerimeter;outlineConnect=0;targetShapes=umlLifeline;portConstraint=eastwest;newEdgeStyle={&quot;curved&quot;:0,&quot;rounded&quot;:0};" vertex="1" parent="1">
          <mxGeometry x="355" y="490" width="10" height="30" as="geometry" />
        </mxCell>
        <mxCell id="0bee53zsupZnmuSa7WSI-47" value="Log in request" style="html=1;verticalAlign=bottom;startArrow=oval;endArrow=block;startSize=8;curved=0;rounded=0;entryX=0;entryY=0;entryDx=0;entryDy=5;" edge="1" target="0bee53zsupZnmuSa7WSI-46" parent="1" source="0bee53zsupZnmuSa7WSI-45">
          <mxGeometry relative="1" as="geometry">
            <mxPoint x="285" y="495" as="sourcePoint" />
          </mxGeometry>
        </mxCell>
        <mxCell id="0bee53zsupZnmuSa7WSI-48" value="" style="html=1;points=[[0,0,0,0,5],[0,1,0,0,-5],[1,0,0,0,5],[1,1,0,0,-5]];perimeter=orthogonalPerimeter;outlineConnect=0;targetShapes=umlLifeline;portConstraint=eastwest;newEdgeStyle={&quot;curved&quot;:0,&quot;rounded&quot;:0};" vertex="1" parent="1">
          <mxGeometry x="570" y="510" width="10" height="30" as="geometry" />
        </mxCell>
        <mxCell id="0bee53zsupZnmuSa7WSI-49" value="Checks credentials" style="html=1;verticalAlign=bottom;startArrow=oval;endArrow=block;startSize=8;curved=0;rounded=0;entryX=0;entryY=0;entryDx=0;entryDy=5;" edge="1" target="0bee53zsupZnmuSa7WSI-48" parent="1" source="0bee53zsupZnmuSa7WSI-46">
          <mxGeometry relative="1" as="geometry">
            <mxPoint x="500" y="515" as="sourcePoint" />
          </mxGeometry>
        </mxCell>
        <mxCell id="0bee53zsupZnmuSa7WSI-50" value="" style="html=1;points=[[0,0,0,0,5],[0,1,0,0,-5],[1,0,0,0,5],[1,1,0,0,-5]];perimeter=orthogonalPerimeter;outlineConnect=0;targetShapes=umlLifeline;portConstraint=eastwest;newEdgeStyle={&quot;curved&quot;:0,&quot;rounded&quot;:0};" vertex="1" parent="1">
          <mxGeometry x="740" y="530" width="10" height="80" as="geometry" />
        </mxCell>
        <mxCell id="0bee53zsupZnmuSa7WSI-51" value="asks database for given&lt;div&gt;credentials&lt;/div&gt;" style="html=1;verticalAlign=bottom;endArrow=block;curved=0;rounded=0;entryX=0;entryY=0;entryDx=0;entryDy=5;" edge="1" target="0bee53zsupZnmuSa7WSI-50" parent="1" source="0bee53zsupZnmuSa7WSI-48">
          <mxGeometry relative="1" as="geometry">
            <mxPoint x="670" y="535" as="sourcePoint" />
          </mxGeometry>
        </mxCell>
        <mxCell id="0bee53zsupZnmuSa7WSI-52" value="reply" style="html=1;verticalAlign=bottom;endArrow=open;dashed=1;endSize=8;curved=0;rounded=0;exitX=0;exitY=1;exitDx=0;exitDy=-5;entryX=1;entryY=1;entryDx=0;entryDy=-5;entryPerimeter=0;" edge="1" source="0bee53zsupZnmuSa7WSI-50" parent="1" target="0bee53zsupZnmuSa7WSI-53">
          <mxGeometry relative="1" as="geometry">
            <mxPoint x="670" y="605" as="targetPoint" />
          </mxGeometry>
        </mxCell>
        <mxCell id="0bee53zsupZnmuSa7WSI-53" value="" style="html=1;points=[[0,0,0,0,5],[0,1,0,0,-5],[1,0,0,0,5],[1,1,0,0,-5]];perimeter=orthogonalPerimeter;outlineConnect=0;targetShapes=umlLifeline;portConstraint=eastwest;newEdgeStyle={&quot;curved&quot;:0,&quot;rounded&quot;:0};" vertex="1" parent="1">
          <mxGeometry x="570" y="580" width="10" height="30" as="geometry" />
        </mxCell>
        <mxCell id="0bee53zsupZnmuSa7WSI-55" value="" style="endArrow=none;dashed=1;html=1;rounded=0;entryX=0.571;entryY=1;entryDx=0;entryDy=0;entryPerimeter=0;" edge="1" parent="1" source="0bee53zsupZnmuSa7WSI-70" target="0bee53zsupZnmuSa7WSI-54">
          <mxGeometry width="50" height="50" relative="1" as="geometry">
            <mxPoint x="576" y="971.1034314385776" as="sourcePoint" />
            <mxPoint x="576" y="390" as="targetPoint" />
          </mxGeometry>
        </mxCell>
        <mxCell id="0bee53zsupZnmuSa7WSI-54" value="" style="html=1;points=[[0,0,0,0,5],[0,1,0,0,-5],[1,0,0,0,5],[1,1,0,0,-5]];perimeter=orthogonalPerimeter;outlineConnect=0;targetShapes=umlLifeline;portConstraint=eastwest;newEdgeStyle={&quot;curved&quot;:0,&quot;rounded&quot;:0};" vertex="1" parent="1">
          <mxGeometry x="570" y="640" width="10" height="30" as="geometry" />
        </mxCell>
        <mxCell id="0bee53zsupZnmuSa7WSI-56" value="If invalid, give actor an error&lt;div&gt;log in if valid&lt;/div&gt;" style="html=1;verticalAlign=bottom;endArrow=open;dashed=1;endSize=8;curved=0;rounded=0;" edge="1" parent="1">
          <mxGeometry relative="1" as="geometry">
            <mxPoint x="570" y="640" as="sourcePoint" />
            <mxPoint x="360" y="640" as="targetPoint" />
          </mxGeometry>
        </mxCell>
        <mxCell id="0bee53zsupZnmuSa7WSI-59" value="" style="endArrow=none;dashed=1;html=1;rounded=0;entryX=0.52;entryY=1.015;entryDx=0;entryDy=0;entryPerimeter=0;" edge="1" parent="1" source="0bee53zsupZnmuSa7WSI-86" target="0bee53zsupZnmuSa7WSI-57">
          <mxGeometry width="50" height="50" relative="1" as="geometry">
            <mxPoint x="360" y="1100" as="sourcePoint" />
            <mxPoint x="360" y="401" as="targetPoint" />
          </mxGeometry>
        </mxCell>
        <mxCell id="0bee53zsupZnmuSa7WSI-57" value="" style="html=1;points=[[0,0,0,0,5],[0,1,0,0,-5],[1,0,0,0,5],[1,1,0,0,-5]];perimeter=orthogonalPerimeter;outlineConnect=0;targetShapes=umlLifeline;portConstraint=eastwest;newEdgeStyle={&quot;curved&quot;:0,&quot;rounded&quot;:0};" vertex="1" parent="1">
          <mxGeometry x="355" y="630" width="10" height="30" as="geometry" />
        </mxCell>
        <mxCell id="0bee53zsupZnmuSa7WSI-61" value="return error or&lt;div&gt;log actor in&lt;/div&gt;" style="html=1;verticalAlign=bottom;endArrow=open;dashed=1;endSize=8;curved=0;rounded=0;" edge="1" parent="1" source="0bee53zsupZnmuSa7WSI-57" target="0bee53zsupZnmuSa7WSI-60">
          <mxGeometry x="-0.002" relative="1" as="geometry">
            <mxPoint x="360" y="630" as="sourcePoint" />
            <mxPoint x="280" y="630" as="targetPoint" />
            <mxPoint as="offset" />
          </mxGeometry>
        </mxCell>
        <mxCell id="0bee53zsupZnmuSa7WSI-62" value="" style="endArrow=none;dashed=1;html=1;rounded=0;" edge="1" parent="1" source="0bee53zsupZnmuSa7WSI-64" target="0bee53zsupZnmuSa7WSI-60">
          <mxGeometry width="50" height="50" relative="1" as="geometry">
            <mxPoint x="180" y="960" as="sourcePoint" />
            <mxPoint x="180" y="530" as="targetPoint" />
          </mxGeometry>
        </mxCell>
        <mxCell id="0bee53zsupZnmuSa7WSI-60" value="" style="html=1;points=[[0,0,0,0,5],[0,1,0,0,-5],[1,0,0,0,5],[1,1,0,0,-5]];perimeter=orthogonalPerimeter;outlineConnect=0;targetShapes=umlLifeline;portConstraint=eastwest;newEdgeStyle={&quot;curved&quot;:0,&quot;rounded&quot;:0};" vertex="1" parent="1">
          <mxGeometry x="175" y="660" width="10" height="30" as="geometry" />
        </mxCell>
        <mxCell id="0bee53zsupZnmuSa7WSI-63" value="" style="endArrow=none;dashed=1;html=1;rounded=0;" edge="1" parent="1" source="0bee53zsupZnmuSa7WSI-76" target="0bee53zsupZnmuSa7WSI-64">
          <mxGeometry width="50" height="50" relative="1" as="geometry">
            <mxPoint x="180" y="960" as="sourcePoint" />
            <mxPoint x="180" y="690" as="targetPoint" />
          </mxGeometry>
        </mxCell>
        <mxCell id="0bee53zsupZnmuSa7WSI-64" value="" style="html=1;points=[[0,0,0,0,5],[0,1,0,0,-5],[1,0,0,0,5],[1,1,0,0,-5]];perimeter=orthogonalPerimeter;outlineConnect=0;targetShapes=umlLifeline;portConstraint=eastwest;newEdgeStyle={&quot;curved&quot;:0,&quot;rounded&quot;:0};" vertex="1" parent="1">
          <mxGeometry x="175" y="710" width="10" height="30" as="geometry" />
        </mxCell>
        <mxCell id="0bee53zsupZnmuSa7WSI-65" value="" style="html=1;points=[[0,0,0,0,5],[0,1,0,0,-5],[1,0,0,0,5],[1,1,0,0,-5]];perimeter=orthogonalPerimeter;outlineConnect=0;targetShapes=umlLifeline;portConstraint=eastwest;newEdgeStyle={&quot;curved&quot;:0,&quot;rounded&quot;:0};" vertex="1" parent="1">
          <mxGeometry x="355" y="710" width="10" height="40" as="geometry" />
        </mxCell>
        <mxCell id="0bee53zsupZnmuSa7WSI-66" value="Add one ticket in cart" style="html=1;verticalAlign=bottom;startArrow=oval;endArrow=block;startSize=8;curved=0;rounded=0;entryX=0;entryY=0;entryDx=0;entryDy=5;" edge="1" target="0bee53zsupZnmuSa7WSI-65" parent="1" source="0bee53zsupZnmuSa7WSI-64">
          <mxGeometry relative="1" as="geometry">
            <mxPoint x="285" y="715" as="sourcePoint" />
          </mxGeometry>
        </mxCell>
        <mxCell id="0bee53zsupZnmuSa7WSI-67" value="" style="html=1;points=[[0,0,0,0,5],[0,1,0,0,-5],[1,0,0,0,5],[1,1,0,0,-5]];perimeter=orthogonalPerimeter;outlineConnect=0;targetShapes=umlLifeline;portConstraint=eastwest;newEdgeStyle={&quot;curved&quot;:0,&quot;rounded&quot;:0};" vertex="1" parent="1">
          <mxGeometry x="570" y="740" width="10" height="30" as="geometry" />
        </mxCell>
        <mxCell id="0bee53zsupZnmuSa7WSI-68" value="Validate action" style="html=1;verticalAlign=bottom;endArrow=block;curved=0;rounded=0;entryX=0;entryY=0;entryDx=0;entryDy=5;" edge="1" target="0bee53zsupZnmuSa7WSI-67" parent="1" source="0bee53zsupZnmuSa7WSI-65">
          <mxGeometry relative="1" as="geometry">
            <mxPoint x="500" y="745" as="sourcePoint" />
          </mxGeometry>
        </mxCell>
        <mxCell id="0bee53zsupZnmuSa7WSI-71" value="" style="endArrow=none;dashed=1;html=1;rounded=0;entryX=0.571;entryY=1;entryDx=0;entryDy=0;entryPerimeter=0;" edge="1" parent="1" source="0bee53zsupZnmuSa7WSI-75" target="0bee53zsupZnmuSa7WSI-70">
          <mxGeometry width="50" height="50" relative="1" as="geometry">
            <mxPoint x="576" y="971.1034314385776" as="sourcePoint" />
            <mxPoint x="576" y="670" as="targetPoint" />
          </mxGeometry>
        </mxCell>
        <mxCell id="0bee53zsupZnmuSa7WSI-70" value="" style="html=1;points=[[0,0,0,0,5],[0,1,0,0,-5],[1,0,0,0,5],[1,1,0,0,-5]];perimeter=orthogonalPerimeter;outlineConnect=0;targetShapes=umlLifeline;portConstraint=eastwest;newEdgeStyle={&quot;curved&quot;:0,&quot;rounded&quot;:0};" vertex="1" parent="1">
          <mxGeometry x="570" y="790" width="10" height="30" as="geometry" />
        </mxCell>
        <mxCell id="0bee53zsupZnmuSa7WSI-72" value="" style="html=1;points=[[0,0,0,0,5],[0,1,0,0,-5],[1,0,0,0,5],[1,1,0,0,-5]];perimeter=orthogonalPerimeter;outlineConnect=0;targetShapes=umlLifeline;portConstraint=eastwest;newEdgeStyle={&quot;curved&quot;:0,&quot;rounded&quot;:0};" vertex="1" parent="1">
          <mxGeometry x="740" y="790" width="10" height="40" as="geometry" />
        </mxCell>
        <mxCell id="0bee53zsupZnmuSa7WSI-73" value="if valid, add ticket&lt;div&gt;to cart table&lt;/div&gt;" style="html=1;verticalAlign=bottom;startArrow=oval;endArrow=block;startSize=8;curved=0;rounded=0;entryX=0;entryY=0;entryDx=0;entryDy=5;exitX=1;exitY=0;exitDx=0;exitDy=5;exitPerimeter=0;" edge="1" target="0bee53zsupZnmuSa7WSI-72" parent="1" source="0bee53zsupZnmuSa7WSI-70">
          <mxGeometry relative="1" as="geometry">
            <mxPoint x="670" y="795" as="sourcePoint" />
          </mxGeometry>
        </mxCell>
        <mxCell id="0bee53zsupZnmuSa7WSI-74" value="" style="endArrow=none;dashed=1;html=1;rounded=0;entryX=0.571;entryY=1;entryDx=0;entryDy=0;entryPerimeter=0;" edge="1" parent="1" source="0bee53zsupZnmuSa7WSI-115" target="0bee53zsupZnmuSa7WSI-75">
          <mxGeometry width="50" height="50" relative="1" as="geometry">
            <mxPoint x="570" y="1961.103515625" as="sourcePoint" />
            <mxPoint x="576" y="820" as="targetPoint" />
          </mxGeometry>
        </mxCell>
        <mxCell id="0bee53zsupZnmuSa7WSI-75" value="" style="html=1;points=[[0,0,0,0,5],[0,1,0,0,-5],[1,0,0,0,5],[1,1,0,0,-5]];perimeter=orthogonalPerimeter;outlineConnect=0;targetShapes=umlLifeline;portConstraint=eastwest;newEdgeStyle={&quot;curved&quot;:0,&quot;rounded&quot;:0};" vertex="1" parent="1">
          <mxGeometry x="570" y="830" width="10" height="40" as="geometry" />
        </mxCell>
        <mxCell id="0bee53zsupZnmuSa7WSI-77" value="" style="endArrow=none;dashed=1;html=1;rounded=0;" edge="1" parent="1" source="0bee53zsupZnmuSa7WSI-80" target="0bee53zsupZnmuSa7WSI-76">
          <mxGeometry width="50" height="50" relative="1" as="geometry">
            <mxPoint x="180" y="1100" as="sourcePoint" />
            <mxPoint x="180" y="740" as="targetPoint" />
          </mxGeometry>
        </mxCell>
        <mxCell id="0bee53zsupZnmuSa7WSI-76" value="" style="html=1;points=[[0,0,0,0,5],[0,1,0,0,-5],[1,0,0,0,5],[1,1,0,0,-5]];perimeter=orthogonalPerimeter;outlineConnect=0;targetShapes=umlLifeline;portConstraint=eastwest;newEdgeStyle={&quot;curved&quot;:0,&quot;rounded&quot;:0};" vertex="1" parent="1">
          <mxGeometry x="175" y="830" width="10" height="40" as="geometry" />
        </mxCell>
        <mxCell id="0bee53zsupZnmuSa7WSI-78" value="if invalid, give an error" style="html=1;verticalAlign=bottom;endArrow=open;dashed=1;endSize=8;curved=0;rounded=0;" edge="1" parent="1" target="0bee53zsupZnmuSa7WSI-76">
          <mxGeometry relative="1" as="geometry">
            <mxPoint x="570" y="830" as="sourcePoint" />
            <mxPoint x="490" y="830" as="targetPoint" />
          </mxGeometry>
        </mxCell>
        <mxCell id="0bee53zsupZnmuSa7WSI-79" value="" style="endArrow=none;dashed=1;html=1;rounded=0;" edge="1" parent="1" source="0bee53zsupZnmuSa7WSI-96" target="0bee53zsupZnmuSa7WSI-80">
          <mxGeometry width="50" height="50" relative="1" as="geometry">
            <mxPoint x="180" y="1400" as="sourcePoint" />
            <mxPoint x="180" y="870" as="targetPoint" />
          </mxGeometry>
        </mxCell>
        <mxCell id="0bee53zsupZnmuSa7WSI-80" value="" style="html=1;points=[[0,0,0,0,5],[0,1,0,0,-5],[1,0,0,0,5],[1,1,0,0,-5]];perimeter=orthogonalPerimeter;outlineConnect=0;targetShapes=umlLifeline;portConstraint=eastwest;newEdgeStyle={&quot;curved&quot;:0,&quot;rounded&quot;:0};" vertex="1" parent="1">
          <mxGeometry x="175" y="900" width="10" height="30" as="geometry" />
        </mxCell>
        <mxCell id="0bee53zsupZnmuSa7WSI-81" value="" style="html=1;points=[[0,0,0,0,5],[0,1,0,0,-5],[1,0,0,0,5],[1,1,0,0,-5]];perimeter=orthogonalPerimeter;outlineConnect=0;targetShapes=umlLifeline;portConstraint=eastwest;newEdgeStyle={&quot;curved&quot;:0,&quot;rounded&quot;:0};" vertex="1" parent="1">
          <mxGeometry x="355" y="900" width="10" height="20" as="geometry" />
        </mxCell>
        <mxCell id="0bee53zsupZnmuSa7WSI-82" value="Searching for specific&lt;div&gt;flights&lt;/div&gt;" style="html=1;verticalAlign=bottom;startArrow=oval;endArrow=block;startSize=8;curved=0;rounded=0;entryX=0;entryY=0;entryDx=0;entryDy=5;" edge="1" target="0bee53zsupZnmuSa7WSI-81" parent="1" source="0bee53zsupZnmuSa7WSI-80">
          <mxGeometry relative="1" as="geometry">
            <mxPoint x="285" y="905" as="sourcePoint" />
          </mxGeometry>
        </mxCell>
        <mxCell id="0bee53zsupZnmuSa7WSI-83" value="" style="html=1;points=[[0,0,0,0,5],[0,1,0,0,-5],[1,0,0,0,5],[1,1,0,0,-5]];perimeter=orthogonalPerimeter;outlineConnect=0;targetShapes=umlLifeline;portConstraint=eastwest;newEdgeStyle={&quot;curved&quot;:0,&quot;rounded&quot;:0};" vertex="1" parent="1">
          <mxGeometry x="740" y="910" width="10" height="80" as="geometry" />
        </mxCell>
        <mxCell id="0bee53zsupZnmuSa7WSI-84" value="querying database" style="html=1;verticalAlign=bottom;endArrow=block;curved=0;rounded=0;entryX=0;entryY=0;entryDx=0;entryDy=5;" edge="1" target="0bee53zsupZnmuSa7WSI-83" parent="1">
          <mxGeometry relative="1" as="geometry">
            <mxPoint x="365" y="910" as="sourcePoint" />
          </mxGeometry>
        </mxCell>
        <mxCell id="0bee53zsupZnmuSa7WSI-87" value="" style="endArrow=none;dashed=1;html=1;rounded=0;entryX=0.52;entryY=1.015;entryDx=0;entryDy=0;entryPerimeter=0;" edge="1" parent="1" source="0bee53zsupZnmuSa7WSI-136" target="0bee53zsupZnmuSa7WSI-86">
          <mxGeometry width="50" height="50" relative="1" as="geometry">
            <mxPoint x="360" y="1971.103515625" as="sourcePoint" />
            <mxPoint x="360" y="660" as="targetPoint" />
          </mxGeometry>
        </mxCell>
        <mxCell id="0bee53zsupZnmuSa7WSI-86" value="" style="html=1;points=[[0,0,0,0,5],[0,1,0,0,-5],[1,0,0,0,5],[1,1,0,0,-5]];perimeter=orthogonalPerimeter;outlineConnect=0;targetShapes=umlLifeline;portConstraint=eastwest;newEdgeStyle={&quot;curved&quot;:0,&quot;rounded&quot;:0};" vertex="1" parent="1">
          <mxGeometry x="355" y="980" width="10" height="30" as="geometry" />
        </mxCell>
        <mxCell id="0bee53zsupZnmuSa7WSI-88" value="return results" style="html=1;verticalAlign=bottom;endArrow=open;dashed=1;endSize=8;curved=0;rounded=0;" edge="1" parent="1" source="0bee53zsupZnmuSa7WSI-83" target="0bee53zsupZnmuSa7WSI-86">
          <mxGeometry relative="1" as="geometry">
            <mxPoint x="740" y="990" as="sourcePoint" />
            <mxPoint x="660" y="990" as="targetPoint" />
          </mxGeometry>
        </mxCell>
        <mxCell id="0bee53zsupZnmuSa7WSI-89" value="" style="html=1;points=[[0,0,0,0,5],[0,1,0,0,-5],[1,0,0,0,5],[1,1,0,0,-5]];perimeter=orthogonalPerimeter;outlineConnect=0;targetShapes=umlLifeline;portConstraint=eastwest;newEdgeStyle={&quot;curved&quot;:0,&quot;rounded&quot;:0};" vertex="1" parent="1">
          <mxGeometry x="175" y="1010" width="10" height="30" as="geometry" />
        </mxCell>
        <mxCell id="0bee53zsupZnmuSa7WSI-90" value="Displays results" style="html=1;verticalAlign=bottom;endArrow=open;dashed=1;endSize=8;curved=0;rounded=0;" edge="1" parent="1" target="0bee53zsupZnmuSa7WSI-89">
          <mxGeometry relative="1" as="geometry">
            <mxPoint x="360" y="1010" as="sourcePoint" />
            <mxPoint x="280" y="1010" as="targetPoint" />
          </mxGeometry>
        </mxCell>
        <mxCell id="0bee53zsupZnmuSa7WSI-91" value="" style="html=1;points=[[0,0,0,0,5],[0,1,0,0,-5],[1,0,0,0,5],[1,1,0,0,-5]];perimeter=orthogonalPerimeter;outlineConnect=0;targetShapes=umlLifeline;portConstraint=eastwest;newEdgeStyle={&quot;curved&quot;:0,&quot;rounded&quot;:0};" vertex="1" parent="1">
          <mxGeometry x="175" y="1080" width="10" height="40" as="geometry" />
        </mxCell>
        <mxCell id="0bee53zsupZnmuSa7WSI-93" value="" style="html=1;verticalAlign=bottom;endArrow=block;curved=0;rounded=0;" edge="1" parent="1" source="0bee53zsupZnmuSa7WSI-91" target="0bee53zsupZnmuSa7WSI-64">
          <mxGeometry width="80" relative="1" as="geometry">
            <mxPoint x="70" y="1070" as="sourcePoint" />
            <mxPoint x="120" y="720" as="targetPoint" />
            <Array as="points">
              <mxPoint x="150" y="1080" />
              <mxPoint x="120" y="1080" />
              <mxPoint x="120" y="720" />
            </Array>
          </mxGeometry>
        </mxCell>
        <mxCell id="0bee53zsupZnmuSa7WSI-94" value="Add ticket from&lt;div&gt;results&lt;/div&gt;" style="edgeLabel;html=1;align=center;verticalAlign=middle;resizable=0;points=[];" vertex="1" connectable="0" parent="0bee53zsupZnmuSa7WSI-93">
          <mxGeometry x="-0.1778" y="1" relative="1" as="geometry">
            <mxPoint as="offset" />
          </mxGeometry>
        </mxCell>
        <mxCell id="0bee53zsupZnmuSa7WSI-95" value="" style="endArrow=none;dashed=1;html=1;rounded=0;" edge="1" parent="1" source="0bee53zsupZnmuSa7WSI-101" target="0bee53zsupZnmuSa7WSI-96">
          <mxGeometry width="50" height="50" relative="1" as="geometry">
            <mxPoint x="180" y="1400" as="sourcePoint" />
            <mxPoint x="180" y="930" as="targetPoint" />
          </mxGeometry>
        </mxCell>
        <mxCell id="0bee53zsupZnmuSa7WSI-96" value="" style="html=1;points=[[0,0,0,0,5],[0,1,0,0,-5],[1,0,0,0,5],[1,1,0,0,-5]];perimeter=orthogonalPerimeter;outlineConnect=0;targetShapes=umlLifeline;portConstraint=eastwest;newEdgeStyle={&quot;curved&quot;:0,&quot;rounded&quot;:0};" vertex="1" parent="1">
          <mxGeometry x="175" y="1150" width="10" height="40" as="geometry" />
        </mxCell>
        <mxCell id="0bee53zsupZnmuSa7WSI-97" value="" style="html=1;points=[[0,0,0,0,5],[0,1,0,0,-5],[1,0,0,0,5],[1,1,0,0,-5]];perimeter=orthogonalPerimeter;outlineConnect=0;targetShapes=umlLifeline;portConstraint=eastwest;newEdgeStyle={&quot;curved&quot;:0,&quot;rounded&quot;:0};" vertex="1" parent="1">
          <mxGeometry x="360" y="1150" width="10" height="80" as="geometry" />
        </mxCell>
        <mxCell id="0bee53zsupZnmuSa7WSI-98" value="Go to cart" style="html=1;verticalAlign=bottom;endArrow=block;curved=0;rounded=0;entryX=0;entryY=0;entryDx=0;entryDy=5;" edge="1" target="0bee53zsupZnmuSa7WSI-97" parent="1" source="0bee53zsupZnmuSa7WSI-96">
          <mxGeometry relative="1" as="geometry">
            <mxPoint x="290" y="1155" as="sourcePoint" />
          </mxGeometry>
        </mxCell>
        <mxCell id="0bee53zsupZnmuSa7WSI-99" value="Go to cart page" style="html=1;verticalAlign=bottom;endArrow=open;dashed=1;endSize=8;curved=0;rounded=0;exitX=0;exitY=1;exitDx=0;exitDy=-5;" edge="1" source="0bee53zsupZnmuSa7WSI-97" parent="1" target="0bee53zsupZnmuSa7WSI-101">
          <mxGeometry relative="1" as="geometry">
            <mxPoint x="290" y="1225" as="targetPoint" />
          </mxGeometry>
        </mxCell>
        <mxCell id="0bee53zsupZnmuSa7WSI-100" value="" style="endArrow=none;dashed=1;html=1;rounded=0;" edge="1" parent="1" source="0bee53zsupZnmuSa7WSI-107" target="0bee53zsupZnmuSa7WSI-101">
          <mxGeometry width="50" height="50" relative="1" as="geometry">
            <mxPoint x="180" y="1560" as="sourcePoint" />
            <mxPoint x="180" y="1190" as="targetPoint" />
          </mxGeometry>
        </mxCell>
        <mxCell id="0bee53zsupZnmuSa7WSI-101" value="" style="html=1;points=[[0,0,0,0,5],[0,1,0,0,-5],[1,0,0,0,5],[1,1,0,0,-5]];perimeter=orthogonalPerimeter;outlineConnect=0;targetShapes=umlLifeline;portConstraint=eastwest;newEdgeStyle={&quot;curved&quot;:0,&quot;rounded&quot;:0};" vertex="1" parent="1">
          <mxGeometry x="175" y="1220" width="10" height="30" as="geometry" />
        </mxCell>
        <mxCell id="0bee53zsupZnmuSa7WSI-102" value="" style="html=1;points=[[0,0,0,0,5],[0,1,0,0,-5],[1,0,0,0,5],[1,1,0,0,-5]];perimeter=orthogonalPerimeter;outlineConnect=0;targetShapes=umlLifeline;portConstraint=eastwest;newEdgeStyle={&quot;curved&quot;:0,&quot;rounded&quot;:0};" vertex="1" parent="1">
          <mxGeometry x="175" y="1280" width="10" height="30" as="geometry" />
        </mxCell>
        <mxCell id="0bee53zsupZnmuSa7WSI-103" value="" style="html=1;points=[[0,0,0,0,5],[0,1,0,0,-5],[1,0,0,0,5],[1,1,0,0,-5]];perimeter=orthogonalPerimeter;outlineConnect=0;targetShapes=umlLifeline;portConstraint=eastwest;newEdgeStyle={&quot;curved&quot;:0,&quot;rounded&quot;:0};" vertex="1" parent="1">
          <mxGeometry x="355" y="1280" width="10" height="40" as="geometry" />
        </mxCell>
        <mxCell id="0bee53zsupZnmuSa7WSI-104" value="Proceed to pay" style="html=1;verticalAlign=bottom;endArrow=block;curved=0;rounded=0;entryX=0;entryY=0;entryDx=0;entryDy=5;" edge="1" target="0bee53zsupZnmuSa7WSI-103" parent="1" source="0bee53zsupZnmuSa7WSI-102">
          <mxGeometry relative="1" as="geometry">
            <mxPoint x="285" y="1285" as="sourcePoint" />
          </mxGeometry>
        </mxCell>
        <mxCell id="0bee53zsupZnmuSa7WSI-105" value="Go to payment page" style="html=1;verticalAlign=bottom;endArrow=open;dashed=1;endSize=8;curved=0;rounded=0;exitX=0;exitY=1;exitDx=0;exitDy=-5;" edge="1" source="0bee53zsupZnmuSa7WSI-103" parent="1">
          <mxGeometry relative="1" as="geometry">
            <mxPoint x="180" y="1320" as="targetPoint" />
          </mxGeometry>
        </mxCell>
        <mxCell id="0bee53zsupZnmuSa7WSI-106" value="" style="endArrow=none;dashed=1;html=1;rounded=0;" edge="1" parent="1" source="0bee53zsupZnmuSa7WSI-117" target="0bee53zsupZnmuSa7WSI-107">
          <mxGeometry width="50" height="50" relative="1" as="geometry">
            <mxPoint x="180" y="1965.8620689655172" as="sourcePoint" />
            <mxPoint x="180" y="1250" as="targetPoint" />
          </mxGeometry>
        </mxCell>
        <mxCell id="0bee53zsupZnmuSa7WSI-107" value="" style="html=1;points=[[0,0,0,0,5],[0,1,0,0,-5],[1,0,0,0,5],[1,1,0,0,-5]];perimeter=orthogonalPerimeter;outlineConnect=0;targetShapes=umlLifeline;portConstraint=eastwest;newEdgeStyle={&quot;curved&quot;:0,&quot;rounded&quot;:0};" vertex="1" parent="1">
          <mxGeometry x="175" y="1320" width="10" height="30" as="geometry" />
        </mxCell>
        <mxCell id="0bee53zsupZnmuSa7WSI-109" value="" style="html=1;points=[[0,0,0,0,5],[0,1,0,0,-5],[1,0,0,0,5],[1,1,0,0,-5]];perimeter=orthogonalPerimeter;outlineConnect=0;targetShapes=umlLifeline;portConstraint=eastwest;newEdgeStyle={&quot;curved&quot;:0,&quot;rounded&quot;:0};" vertex="1" parent="1">
          <mxGeometry x="175" y="1390" width="10" height="40" as="geometry" />
        </mxCell>
        <mxCell id="0bee53zsupZnmuSa7WSI-110" value="" style="html=1;points=[[0,0,0,0,5],[0,1,0,0,-5],[1,0,0,0,5],[1,1,0,0,-5]];perimeter=orthogonalPerimeter;outlineConnect=0;targetShapes=umlLifeline;portConstraint=eastwest;newEdgeStyle={&quot;curved&quot;:0,&quot;rounded&quot;:0};" vertex="1" parent="1">
          <mxGeometry x="355" y="1430" width="10" height="30" as="geometry" />
        </mxCell>
        <mxCell id="0bee53zsupZnmuSa7WSI-111" value="Complete payment" style="html=1;verticalAlign=bottom;endArrow=block;curved=0;rounded=0;" edge="1" parent="1" target="0bee53zsupZnmuSa7WSI-110">
          <mxGeometry width="80" relative="1" as="geometry">
            <mxPoint x="180" y="1430" as="sourcePoint" />
            <mxPoint x="260" y="1430" as="targetPoint" />
          </mxGeometry>
        </mxCell>
        <mxCell id="0bee53zsupZnmuSa7WSI-112" value="" style="html=1;points=[[0,0,0,0,5],[0,1,0,0,-5],[1,0,0,0,5],[1,1,0,0,-5]];perimeter=orthogonalPerimeter;outlineConnect=0;targetShapes=umlLifeline;portConstraint=eastwest;newEdgeStyle={&quot;curved&quot;:0,&quot;rounded&quot;:0};" vertex="1" parent="1">
          <mxGeometry x="570" y="1460" width="10" height="30" as="geometry" />
        </mxCell>
        <mxCell id="0bee53zsupZnmuSa7WSI-113" value="Validate inputs" style="html=1;verticalAlign=bottom;endArrow=block;curved=0;rounded=0;" edge="1" parent="1" target="0bee53zsupZnmuSa7WSI-112">
          <mxGeometry width="80" relative="1" as="geometry">
            <mxPoint x="360" y="1460" as="sourcePoint" />
            <mxPoint x="440" y="1460" as="targetPoint" />
          </mxGeometry>
        </mxCell>
        <mxCell id="0bee53zsupZnmuSa7WSI-114" value="" style="endArrow=none;dashed=1;html=1;rounded=0;entryX=0.571;entryY=1;entryDx=0;entryDy=0;entryPerimeter=0;" edge="1" parent="1" source="0bee53zsupZnmuSa7WSI-120" target="0bee53zsupZnmuSa7WSI-115">
          <mxGeometry width="50" height="50" relative="1" as="geometry">
            <mxPoint x="570" y="1961.103515625" as="sourcePoint" />
            <mxPoint x="576" y="870" as="targetPoint" />
          </mxGeometry>
        </mxCell>
        <mxCell id="0bee53zsupZnmuSa7WSI-115" value="" style="html=1;points=[[0,0,0,0,5],[0,1,0,0,-5],[1,0,0,0,5],[1,1,0,0,-5]];perimeter=orthogonalPerimeter;outlineConnect=0;targetShapes=umlLifeline;portConstraint=eastwest;newEdgeStyle={&quot;curved&quot;:0,&quot;rounded&quot;:0};" vertex="1" parent="1">
          <mxGeometry x="570" y="1500" width="10" height="50" as="geometry" />
        </mxCell>
        <mxCell id="0bee53zsupZnmuSa7WSI-116" value="" style="endArrow=none;dashed=1;html=1;rounded=0;" edge="1" parent="1" source="0bee53zsupZnmuSa7WSI-128" target="0bee53zsupZnmuSa7WSI-117">
          <mxGeometry width="50" height="50" relative="1" as="geometry">
            <mxPoint x="180" y="1965.8620689655172" as="sourcePoint" />
            <mxPoint x="180" y="1350" as="targetPoint" />
          </mxGeometry>
        </mxCell>
        <mxCell id="0bee53zsupZnmuSa7WSI-117" value="" style="html=1;points=[[0,0,0,0,5],[0,1,0,0,-5],[1,0,0,0,5],[1,1,0,0,-5]];perimeter=orthogonalPerimeter;outlineConnect=0;targetShapes=umlLifeline;portConstraint=eastwest;newEdgeStyle={&quot;curved&quot;:0,&quot;rounded&quot;:0};" vertex="1" parent="1">
          <mxGeometry x="175" y="1540" width="10" height="40" as="geometry" />
        </mxCell>
        <mxCell id="0bee53zsupZnmuSa7WSI-118" value="If invalid, return error" style="html=1;verticalAlign=bottom;endArrow=open;dashed=1;endSize=8;curved=0;rounded=0;" edge="1" parent="1" target="0bee53zsupZnmuSa7WSI-117">
          <mxGeometry relative="1" as="geometry">
            <mxPoint x="570" y="1550" as="sourcePoint" />
            <mxPoint x="490" y="1550" as="targetPoint" />
          </mxGeometry>
        </mxCell>
        <mxCell id="0bee53zsupZnmuSa7WSI-119" value="" style="endArrow=none;dashed=1;html=1;rounded=0;entryX=0.571;entryY=1;entryDx=0;entryDy=0;entryPerimeter=0;" edge="1" parent="1" source="0bee53zsupZnmuSa7WSI-143" target="0bee53zsupZnmuSa7WSI-120">
          <mxGeometry width="50" height="50" relative="1" as="geometry">
            <mxPoint x="580" y="2290" as="sourcePoint" />
            <mxPoint x="576" y="1550" as="targetPoint" />
          </mxGeometry>
        </mxCell>
        <mxCell id="0bee53zsupZnmuSa7WSI-120" value="" style="html=1;points=[[0,0,0,0,5],[0,1,0,0,-5],[1,0,0,0,5],[1,1,0,0,-5]];perimeter=orthogonalPerimeter;outlineConnect=0;targetShapes=umlLifeline;portConstraint=eastwest;newEdgeStyle={&quot;curved&quot;:0,&quot;rounded&quot;:0};" vertex="1" parent="1">
          <mxGeometry x="570" y="1570" width="10" height="50" as="geometry" />
        </mxCell>
        <mxCell id="0bee53zsupZnmuSa7WSI-121" value="" style="html=1;points=[[0,0,0,0,5],[0,1,0,0,-5],[1,0,0,0,5],[1,1,0,0,-5]];perimeter=orthogonalPerimeter;outlineConnect=0;targetShapes=umlLifeline;portConstraint=eastwest;newEdgeStyle={&quot;curved&quot;:0,&quot;rounded&quot;:0};" vertex="1" parent="1">
          <mxGeometry x="730" y="1600" width="10" height="40" as="geometry" />
        </mxCell>
        <mxCell id="0bee53zsupZnmuSa7WSI-122" value="If valid&lt;div&gt;Add payment to database&lt;/div&gt;" style="html=1;verticalAlign=bottom;startArrow=oval;endArrow=block;startSize=8;curved=0;rounded=0;entryX=0;entryY=0;entryDx=0;entryDy=5;" edge="1" target="0bee53zsupZnmuSa7WSI-121" parent="1" source="0bee53zsupZnmuSa7WSI-120">
          <mxGeometry relative="1" as="geometry">
            <mxPoint x="660" y="1605" as="sourcePoint" />
          </mxGeometry>
        </mxCell>
        <mxCell id="0bee53zsupZnmuSa7WSI-123" value="return valid" style="html=1;verticalAlign=bottom;endArrow=open;dashed=1;endSize=8;curved=0;rounded=0;entryX=1;entryY=0;entryDx=0;entryDy=5;entryPerimeter=0;" edge="1" parent="1" target="0bee53zsupZnmuSa7WSI-124">
          <mxGeometry relative="1" as="geometry">
            <mxPoint x="570" y="1620" as="sourcePoint" />
            <mxPoint x="370" y="1620" as="targetPoint" />
          </mxGeometry>
        </mxCell>
        <mxCell id="0bee53zsupZnmuSa7WSI-124" value="" style="html=1;points=[[0,0,0,0,5],[0,1,0,0,-5],[1,0,0,0,5],[1,1,0,0,-5]];perimeter=orthogonalPerimeter;outlineConnect=0;targetShapes=umlLifeline;portConstraint=eastwest;newEdgeStyle={&quot;curved&quot;:0,&quot;rounded&quot;:0};" vertex="1" parent="1">
          <mxGeometry x="355" y="1620" width="10" height="40" as="geometry" />
        </mxCell>
        <mxCell id="0bee53zsupZnmuSa7WSI-125" value="" style="html=1;points=[[0,0,0,0,5],[0,1,0,0,-5],[1,0,0,0,5],[1,1,0,0,-5]];perimeter=orthogonalPerimeter;outlineConnect=0;targetShapes=umlLifeline;portConstraint=eastwest;newEdgeStyle={&quot;curved&quot;:0,&quot;rounded&quot;:0};" vertex="1" parent="1">
          <mxGeometry x="175" y="1660" width="10" height="30" as="geometry" />
        </mxCell>
        <mxCell id="0bee53zsupZnmuSa7WSI-126" value="Confirm successful&lt;div&gt;payment&lt;/div&gt;" style="html=1;verticalAlign=bottom;endArrow=open;dashed=1;endSize=8;curved=0;rounded=0;" edge="1" parent="1" target="0bee53zsupZnmuSa7WSI-125">
          <mxGeometry relative="1" as="geometry">
            <mxPoint x="360" y="1660" as="sourcePoint" />
            <mxPoint x="280" y="1660" as="targetPoint" />
          </mxGeometry>
        </mxCell>
        <mxCell id="0bee53zsupZnmuSa7WSI-127" value="" style="endArrow=none;dashed=1;html=1;rounded=0;" edge="1" parent="1" source="0bee53zsupZnmuSa7WSI-146" target="0bee53zsupZnmuSa7WSI-128">
          <mxGeometry width="50" height="50" relative="1" as="geometry">
            <mxPoint x="170" y="2351.103515625" as="sourcePoint" />
            <mxPoint x="180" y="1580" as="targetPoint" />
          </mxGeometry>
        </mxCell>
        <mxCell id="0bee53zsupZnmuSa7WSI-128" value="" style="html=1;points=[[0,0,0,0,5],[0,1,0,0,-5],[1,0,0,0,5],[1,1,0,0,-5]];perimeter=orthogonalPerimeter;outlineConnect=0;targetShapes=umlLifeline;portConstraint=eastwest;newEdgeStyle={&quot;curved&quot;:0,&quot;rounded&quot;:0};" vertex="1" parent="1">
          <mxGeometry x="175" y="1720" width="10" height="40" as="geometry" />
        </mxCell>
        <mxCell id="0bee53zsupZnmuSa7WSI-129" value="" style="html=1;points=[[0,0,0,0,5],[0,1,0,0,-5],[1,0,0,0,5],[1,1,0,0,-5]];perimeter=orthogonalPerimeter;outlineConnect=0;targetShapes=umlLifeline;portConstraint=eastwest;newEdgeStyle={&quot;curved&quot;:0,&quot;rounded&quot;:0};" vertex="1" parent="1">
          <mxGeometry x="355" y="1750" width="10" height="40" as="geometry" />
        </mxCell>
        <mxCell id="0bee53zsupZnmuSa7WSI-130" value="Go to account page" style="html=1;verticalAlign=bottom;endArrow=block;curved=0;rounded=0;entryX=0;entryY=0;entryDx=0;entryDy=5;" edge="1" target="0bee53zsupZnmuSa7WSI-129" parent="1" source="0bee53zsupZnmuSa7WSI-128">
          <mxGeometry relative="1" as="geometry">
            <mxPoint x="285" y="1755" as="sourcePoint" />
          </mxGeometry>
        </mxCell>
        <mxCell id="0bee53zsupZnmuSa7WSI-131" value="send actor to account page" style="html=1;verticalAlign=bottom;endArrow=open;dashed=1;endSize=8;curved=0;rounded=0;exitX=0;exitY=1;exitDx=0;exitDy=-5;" edge="1" source="0bee53zsupZnmuSa7WSI-129" parent="1" target="0bee53zsupZnmuSa7WSI-132">
          <mxGeometry relative="1" as="geometry">
            <mxPoint x="285" y="1825" as="targetPoint" />
          </mxGeometry>
        </mxCell>
        <mxCell id="0bee53zsupZnmuSa7WSI-132" value="" style="html=1;points=[[0,0,0,0,5],[0,1,0,0,-5],[1,0,0,0,5],[1,1,0,0,-5]];perimeter=orthogonalPerimeter;outlineConnect=0;targetShapes=umlLifeline;portConstraint=eastwest;newEdgeStyle={&quot;curved&quot;:0,&quot;rounded&quot;:0};" vertex="1" parent="1">
          <mxGeometry x="170" y="1790" width="10" height="40" as="geometry" />
        </mxCell>
        <mxCell id="0bee53zsupZnmuSa7WSI-134" value="Change account info" style="html=1;verticalAlign=bottom;endArrow=open;dashed=1;endSize=8;curved=0;rounded=0;exitX=1;exitY=1;exitDx=0;exitDy=-5;" edge="1" source="0bee53zsupZnmuSa7WSI-132" parent="1" target="0bee53zsupZnmuSa7WSI-136">
          <mxGeometry relative="1" as="geometry">
            <mxPoint x="330" y="1830" as="targetPoint" />
          </mxGeometry>
        </mxCell>
        <mxCell id="0bee53zsupZnmuSa7WSI-135" value="" style="endArrow=none;dashed=1;html=1;rounded=0;entryX=0.52;entryY=1.015;entryDx=0;entryDy=0;entryPerimeter=0;" edge="1" parent="1" source="0bee53zsupZnmuSa7WSI-175" target="0bee53zsupZnmuSa7WSI-136">
          <mxGeometry width="50" height="50" relative="1" as="geometry">
            <mxPoint x="360" y="3001.103515625" as="sourcePoint" />
            <mxPoint x="360" y="1010" as="targetPoint" />
          </mxGeometry>
        </mxCell>
        <mxCell id="0bee53zsupZnmuSa7WSI-136" value="" style="html=1;points=[[0,0,0,0,5],[0,1,0,0,-5],[1,0,0,0,5],[1,1,0,0,-5]];perimeter=orthogonalPerimeter;outlineConnect=0;targetShapes=umlLifeline;portConstraint=eastwest;newEdgeStyle={&quot;curved&quot;:0,&quot;rounded&quot;:0};" vertex="1" parent="1">
          <mxGeometry x="355" y="1830" width="10" height="50" as="geometry" />
        </mxCell>
        <mxCell id="0bee53zsupZnmuSa7WSI-137" value="" style="html=1;points=[[0,0,0,0,5],[0,1,0,0,-5],[1,0,0,0,5],[1,1,0,0,-5]];perimeter=orthogonalPerimeter;outlineConnect=0;targetShapes=umlLifeline;portConstraint=eastwest;newEdgeStyle={&quot;curved&quot;:0,&quot;rounded&quot;:0};" vertex="1" parent="1">
          <mxGeometry x="570" y="1870" width="10" height="50" as="geometry" />
        </mxCell>
        <mxCell id="0bee53zsupZnmuSa7WSI-138" value="Validate changes" style="html=1;verticalAlign=bottom;startArrow=oval;endArrow=block;startSize=8;curved=0;rounded=0;entryX=0;entryY=0;entryDx=0;entryDy=5;exitX=1;exitY=1;exitDx=0;exitDy=-5;exitPerimeter=0;" edge="1" target="0bee53zsupZnmuSa7WSI-137" parent="1" source="0bee53zsupZnmuSa7WSI-136">
          <mxGeometry relative="1" as="geometry">
            <mxPoint x="500" y="1875" as="sourcePoint" />
          </mxGeometry>
        </mxCell>
        <mxCell id="0bee53zsupZnmuSa7WSI-139" value="" style="html=1;points=[[0,0,0,0,5],[0,1,0,0,-5],[1,0,0,0,5],[1,1,0,0,-5]];perimeter=orthogonalPerimeter;outlineConnect=0;targetShapes=umlLifeline;portConstraint=eastwest;newEdgeStyle={&quot;curved&quot;:0,&quot;rounded&quot;:0};" vertex="1" parent="1">
          <mxGeometry x="570" y="1950" width="10" height="30" as="geometry" />
        </mxCell>
        <mxCell id="0bee53zsupZnmuSa7WSI-140" value="" style="html=1;points=[[0,0,0,0,5],[0,1,0,0,-5],[1,0,0,0,5],[1,1,0,0,-5]];perimeter=orthogonalPerimeter;outlineConnect=0;targetShapes=umlLifeline;portConstraint=eastwest;newEdgeStyle={&quot;curved&quot;:0,&quot;rounded&quot;:0};" vertex="1" parent="1">
          <mxGeometry x="730" y="1970" width="10" height="60" as="geometry" />
        </mxCell>
        <mxCell id="0bee53zsupZnmuSa7WSI-141" value="If valid&lt;div&gt;update database&lt;/div&gt;" style="html=1;verticalAlign=bottom;startArrow=oval;endArrow=block;startSize=8;curved=0;rounded=0;entryX=0;entryY=0;entryDx=0;entryDy=5;" edge="1" target="0bee53zsupZnmuSa7WSI-140" parent="1" source="0bee53zsupZnmuSa7WSI-139">
          <mxGeometry relative="1" as="geometry">
            <mxPoint x="650" y="1985" as="sourcePoint" />
          </mxGeometry>
        </mxCell>
        <mxCell id="0bee53zsupZnmuSa7WSI-142" value="" style="endArrow=none;dashed=1;html=1;rounded=0;entryX=0.571;entryY=1;entryDx=0;entryDy=0;entryPerimeter=0;" edge="1" parent="1" source="0bee53zsupZnmuSa7WSI-173" target="0bee53zsupZnmuSa7WSI-143">
          <mxGeometry width="50" height="50" relative="1" as="geometry">
            <mxPoint x="570" y="3002.20703125" as="sourcePoint" />
            <mxPoint x="576" y="1620" as="targetPoint" />
          </mxGeometry>
        </mxCell>
        <mxCell id="0bee53zsupZnmuSa7WSI-143" value="" style="html=1;points=[[0,0,0,0,5],[0,1,0,0,-5],[1,0,0,0,5],[1,1,0,0,-5]];perimeter=orthogonalPerimeter;outlineConnect=0;targetShapes=umlLifeline;portConstraint=eastwest;newEdgeStyle={&quot;curved&quot;:0,&quot;rounded&quot;:0};" vertex="1" parent="1">
          <mxGeometry x="575" y="1990" width="10" height="30" as="geometry" />
        </mxCell>
        <mxCell id="0bee53zsupZnmuSa7WSI-144" value="If invalid&lt;div&gt;Return error message&lt;/div&gt;" style="html=1;verticalAlign=bottom;endArrow=open;dashed=1;endSize=8;curved=0;rounded=0;" edge="1" parent="1">
          <mxGeometry relative="1" as="geometry">
            <mxPoint x="580" y="2020" as="sourcePoint" />
            <mxPoint x="170" y="2020" as="targetPoint" />
          </mxGeometry>
        </mxCell>
        <mxCell id="0bee53zsupZnmuSa7WSI-145" value="" style="endArrow=none;dashed=1;html=1;rounded=0;" edge="1" parent="1" source="0bee53zsupZnmuSa7WSI-148" target="0bee53zsupZnmuSa7WSI-146">
          <mxGeometry width="50" height="50" relative="1" as="geometry">
            <mxPoint x="170" y="2351.103515625" as="sourcePoint" />
            <mxPoint x="175" y="1760" as="targetPoint" />
          </mxGeometry>
        </mxCell>
        <mxCell id="0bee53zsupZnmuSa7WSI-146" value="" style="html=1;points=[[0,0,0,0,5],[0,1,0,0,-5],[1,0,0,0,5],[1,1,0,0,-5]];perimeter=orthogonalPerimeter;outlineConnect=0;targetShapes=umlLifeline;portConstraint=eastwest;newEdgeStyle={&quot;curved&quot;:0,&quot;rounded&quot;:0};" vertex="1" parent="1">
          <mxGeometry x="165" y="2000" width="10" height="50" as="geometry" />
        </mxCell>
        <mxCell id="0bee53zsupZnmuSa7WSI-147" value="" style="endArrow=none;dashed=1;html=1;rounded=0;" edge="1" parent="1" target="0bee53zsupZnmuSa7WSI-148">
          <mxGeometry width="50" height="50" relative="1" as="geometry">
            <mxPoint x="170" y="2200" as="sourcePoint" />
            <mxPoint x="170" y="2050" as="targetPoint" />
          </mxGeometry>
        </mxCell>
        <mxCell id="0bee53zsupZnmuSa7WSI-148" value="" style="html=1;points=[[0,0,0,0,5],[0,1,0,0,-5],[1,0,0,0,5],[1,1,0,0,-5]];perimeter=orthogonalPerimeter;outlineConnect=0;targetShapes=umlLifeline;portConstraint=eastwest;newEdgeStyle={&quot;curved&quot;:0,&quot;rounded&quot;:0};" vertex="1" parent="1">
          <mxGeometry x="165" y="2100" width="10" height="40" as="geometry" />
        </mxCell>
        <mxCell id="0bee53zsupZnmuSa7WSI-149" value="" style="html=1;points=[[0,0,0,0,5],[0,1,0,0,-5],[1,0,0,0,5],[1,1,0,0,-5]];perimeter=orthogonalPerimeter;outlineConnect=0;targetShapes=umlLifeline;portConstraint=eastwest;newEdgeStyle={&quot;curved&quot;:0,&quot;rounded&quot;:0};" vertex="1" parent="1">
          <mxGeometry x="355" y="2130" width="10" height="30" as="geometry" />
        </mxCell>
        <mxCell id="0bee53zsupZnmuSa7WSI-150" value="Ask for account deletion" style="html=1;verticalAlign=bottom;startArrow=oval;endArrow=block;startSize=8;curved=0;rounded=0;entryX=0;entryY=0;entryDx=0;entryDy=5;" edge="1" target="0bee53zsupZnmuSa7WSI-149" parent="1" source="0bee53zsupZnmuSa7WSI-148">
          <mxGeometry relative="1" as="geometry">
            <mxPoint x="285" y="2135" as="sourcePoint" />
          </mxGeometry>
        </mxCell>
        <mxCell id="0bee53zsupZnmuSa7WSI-151" value="" style="html=1;points=[[0,0,0,0,5],[0,1,0,0,-5],[1,0,0,0,5],[1,1,0,0,-5]];perimeter=orthogonalPerimeter;outlineConnect=0;targetShapes=umlLifeline;portConstraint=eastwest;newEdgeStyle={&quot;curved&quot;:0,&quot;rounded&quot;:0};" vertex="1" parent="1">
          <mxGeometry x="575" y="2160" width="10" height="80" as="geometry" />
        </mxCell>
        <mxCell id="0bee53zsupZnmuSa7WSI-152" value="Send request to controller" style="html=1;verticalAlign=bottom;startArrow=oval;endArrow=block;startSize=8;curved=0;rounded=0;entryX=0;entryY=0;entryDx=0;entryDy=5;" edge="1" target="0bee53zsupZnmuSa7WSI-151" parent="1" source="0bee53zsupZnmuSa7WSI-149">
          <mxGeometry relative="1" as="geometry">
            <mxPoint x="505" y="2165" as="sourcePoint" />
          </mxGeometry>
        </mxCell>
        <mxCell id="0bee53zsupZnmuSa7WSI-153" value="" style="html=1;points=[[0,0,0,0,5],[0,1,0,0,-5],[1,0,0,0,5],[1,1,0,0,-5]];perimeter=orthogonalPerimeter;outlineConnect=0;targetShapes=umlLifeline;portConstraint=eastwest;newEdgeStyle={&quot;curved&quot;:0,&quot;rounded&quot;:0};" vertex="1" parent="1">
          <mxGeometry x="720" y="2220" width="10" height="80" as="geometry" />
        </mxCell>
        <mxCell id="0bee53zsupZnmuSa7WSI-154" value="Remove&lt;div&gt;User account&lt;/div&gt;" style="html=1;verticalAlign=bottom;startArrow=oval;endArrow=block;startSize=8;curved=0;rounded=0;entryX=0;entryY=0;entryDx=0;entryDy=5;" edge="1" target="0bee53zsupZnmuSa7WSI-153" parent="1" source="0bee53zsupZnmuSa7WSI-151">
          <mxGeometry relative="1" as="geometry">
            <mxPoint x="650" y="2245" as="sourcePoint" />
          </mxGeometry>
        </mxCell>
        <mxCell id="0bee53zsupZnmuSa7WSI-155" value="Worker" style="shape=umlActor;verticalLabelPosition=bottom;verticalAlign=top;html=1;" vertex="1" parent="1">
          <mxGeometry x="155" y="2210" width="30" height="60" as="geometry" />
        </mxCell>
        <mxCell id="0bee53zsupZnmuSa7WSI-156" value="" style="endArrow=none;dashed=1;html=1;rounded=0;" edge="1" parent="1" source="0bee53zsupZnmuSa7WSI-162" target="0bee53zsupZnmuSa7WSI-155">
          <mxGeometry width="50" height="50" relative="1" as="geometry">
            <mxPoint x="170" y="2610.5517578125" as="sourcePoint" />
            <mxPoint x="190" y="2320" as="targetPoint" />
          </mxGeometry>
        </mxCell>
        <mxCell id="0bee53zsupZnmuSa7WSI-157" value="" style="html=1;points=[[0,0,0,0,5],[0,1,0,0,-5],[1,0,0,0,5],[1,1,0,0,-5]];perimeter=orthogonalPerimeter;outlineConnect=0;targetShapes=umlLifeline;portConstraint=eastwest;newEdgeStyle={&quot;curved&quot;:0,&quot;rounded&quot;:0};" vertex="1" parent="1">
          <mxGeometry x="165" y="2330" width="10" height="80" as="geometry" />
        </mxCell>
        <mxCell id="0bee53zsupZnmuSa7WSI-158" value="" style="html=1;points=[[0,0,0,0,5],[0,1,0,0,-5],[1,0,0,0,5],[1,1,0,0,-5]];perimeter=orthogonalPerimeter;outlineConnect=0;targetShapes=umlLifeline;portConstraint=eastwest;newEdgeStyle={&quot;curved&quot;:0,&quot;rounded&quot;:0};" vertex="1" parent="1">
          <mxGeometry x="365" y="2400" width="10" height="80" as="geometry" />
        </mxCell>
        <mxCell id="0bee53zsupZnmuSa7WSI-159" value="Go to dashboard" style="html=1;verticalAlign=bottom;endArrow=block;curved=0;rounded=0;entryX=0;entryY=0;entryDx=0;entryDy=5;" edge="1" target="0bee53zsupZnmuSa7WSI-158" parent="1" source="0bee53zsupZnmuSa7WSI-157">
          <mxGeometry relative="1" as="geometry">
            <mxPoint x="295" y="2405" as="sourcePoint" />
          </mxGeometry>
        </mxCell>
        <mxCell id="0bee53zsupZnmuSa7WSI-160" value="Opens dashboard&lt;div&gt;for worker&lt;/div&gt;" style="html=1;verticalAlign=bottom;endArrow=open;dashed=1;endSize=8;curved=0;rounded=0;exitX=0;exitY=1;exitDx=0;exitDy=-5;" edge="1" source="0bee53zsupZnmuSa7WSI-158" parent="1" target="0bee53zsupZnmuSa7WSI-162">
          <mxGeometry relative="1" as="geometry">
            <mxPoint x="295" y="2475" as="targetPoint" />
          </mxGeometry>
        </mxCell>
        <mxCell id="0bee53zsupZnmuSa7WSI-161" value="" style="endArrow=none;dashed=1;html=1;rounded=0;" edge="1" parent="1" source="0bee53zsupZnmuSa7WSI-163" target="0bee53zsupZnmuSa7WSI-162">
          <mxGeometry width="50" height="50" relative="1" as="geometry">
            <mxPoint x="160" y="2992.2066945043102" as="sourcePoint" />
            <mxPoint x="170" y="2270" as="targetPoint" />
          </mxGeometry>
        </mxCell>
        <mxCell id="0bee53zsupZnmuSa7WSI-162" value="" style="html=1;points=[[0,0,0,0,5],[0,1,0,0,-5],[1,0,0,0,5],[1,1,0,0,-5]];perimeter=orthogonalPerimeter;outlineConnect=0;targetShapes=umlLifeline;portConstraint=eastwest;newEdgeStyle={&quot;curved&quot;:0,&quot;rounded&quot;:0};" vertex="1" parent="1">
          <mxGeometry x="165" y="2480" width="10" height="30" as="geometry" />
        </mxCell>
        <mxCell id="0bee53zsupZnmuSa7WSI-164" value="" style="endArrow=none;dashed=1;html=1;rounded=0;" edge="1" parent="1" target="0bee53zsupZnmuSa7WSI-163">
          <mxGeometry width="50" height="50" relative="1" as="geometry">
            <mxPoint x="160" y="2870" as="sourcePoint" />
            <mxPoint x="165" y="2510" as="targetPoint" />
          </mxGeometry>
        </mxCell>
        <mxCell id="0bee53zsupZnmuSa7WSI-163" value="" style="html=1;points=[[0,0,0,0,5],[0,1,0,0,-5],[1,0,0,0,5],[1,1,0,0,-5]];perimeter=orthogonalPerimeter;outlineConnect=0;targetShapes=umlLifeline;portConstraint=eastwest;newEdgeStyle={&quot;curved&quot;:0,&quot;rounded&quot;:0};" vertex="1" parent="1">
          <mxGeometry x="160" y="2530" width="10" height="30" as="geometry" />
        </mxCell>
        <mxCell id="0bee53zsupZnmuSa7WSI-165" value="" style="html=1;points=[[0,0,0,0,5],[0,1,0,0,-5],[1,0,0,0,5],[1,1,0,0,-5]];perimeter=orthogonalPerimeter;outlineConnect=0;targetShapes=umlLifeline;portConstraint=eastwest;newEdgeStyle={&quot;curved&quot;:0,&quot;rounded&quot;:0};" vertex="1" parent="1">
          <mxGeometry x="355" y="2560" width="10" height="30" as="geometry" />
        </mxCell>
        <mxCell id="0bee53zsupZnmuSa7WSI-166" value="Asks database for&lt;div&gt;specific user info&lt;/div&gt;" style="html=1;verticalAlign=bottom;startArrow=oval;endArrow=block;startSize=8;curved=0;rounded=0;entryX=0;entryY=0;entryDx=0;entryDy=5;" edge="1" target="0bee53zsupZnmuSa7WSI-165" parent="1" source="0bee53zsupZnmuSa7WSI-163">
          <mxGeometry relative="1" as="geometry">
            <mxPoint x="285" y="2565" as="sourcePoint" />
          </mxGeometry>
        </mxCell>
        <mxCell id="0bee53zsupZnmuSa7WSI-167" value="" style="html=1;points=[[0,0,0,0,5],[0,1,0,0,-5],[1,0,0,0,5],[1,1,0,0,-5]];perimeter=orthogonalPerimeter;outlineConnect=0;targetShapes=umlLifeline;portConstraint=eastwest;newEdgeStyle={&quot;curved&quot;:0,&quot;rounded&quot;:0};" vertex="1" parent="1">
          <mxGeometry x="570" y="2590" width="10" height="20" as="geometry" />
        </mxCell>
        <mxCell id="0bee53zsupZnmuSa7WSI-168" value="Sends request to controller" style="html=1;verticalAlign=bottom;startArrow=oval;endArrow=block;startSize=8;curved=0;rounded=0;entryX=0;entryY=0;entryDx=0;entryDy=5;" edge="1" target="0bee53zsupZnmuSa7WSI-167" parent="1" source="0bee53zsupZnmuSa7WSI-165">
          <mxGeometry relative="1" as="geometry">
            <mxPoint x="500" y="2595" as="sourcePoint" />
          </mxGeometry>
        </mxCell>
        <mxCell id="0bee53zsupZnmuSa7WSI-169" value="" style="html=1;points=[[0,0,0,0,5],[0,1,0,0,-5],[1,0,0,0,5],[1,1,0,0,-5]];perimeter=orthogonalPerimeter;outlineConnect=0;targetShapes=umlLifeline;portConstraint=eastwest;newEdgeStyle={&quot;curved&quot;:0,&quot;rounded&quot;:0};" vertex="1" parent="1">
          <mxGeometry x="720" y="2610" width="10" height="80" as="geometry" />
        </mxCell>
        <mxCell id="0bee53zsupZnmuSa7WSI-170" value="Queries the databse" style="html=1;verticalAlign=bottom;endArrow=block;curved=0;rounded=0;entryX=0;entryY=0;entryDx=0;entryDy=5;" edge="1" target="0bee53zsupZnmuSa7WSI-169" parent="1" source="0bee53zsupZnmuSa7WSI-167">
          <mxGeometry relative="1" as="geometry">
            <mxPoint x="650" y="2615" as="sourcePoint" />
          </mxGeometry>
        </mxCell>
        <mxCell id="0bee53zsupZnmuSa7WSI-171" value="return answer" style="html=1;verticalAlign=bottom;endArrow=open;dashed=1;endSize=8;curved=0;rounded=0;exitX=0;exitY=1;exitDx=0;exitDy=-5;" edge="1" source="0bee53zsupZnmuSa7WSI-169" parent="1" target="0bee53zsupZnmuSa7WSI-173">
          <mxGeometry relative="1" as="geometry">
            <mxPoint x="650" y="2685" as="targetPoint" />
          </mxGeometry>
        </mxCell>
        <mxCell id="0bee53zsupZnmuSa7WSI-172" value="" style="endArrow=none;dashed=1;html=1;rounded=0;entryX=0.571;entryY=1;entryDx=0;entryDy=0;entryPerimeter=0;" edge="1" parent="1" target="0bee53zsupZnmuSa7WSI-173">
          <mxGeometry width="50" height="50" relative="1" as="geometry">
            <mxPoint x="570.71" y="3319.9999999999995" as="sourcePoint" />
            <mxPoint x="581" y="2020" as="targetPoint" />
          </mxGeometry>
        </mxCell>
        <mxCell id="0bee53zsupZnmuSa7WSI-173" value="" style="html=1;points=[[0,0,0,0,5],[0,1,0,0,-5],[1,0,0,0,5],[1,1,0,0,-5]];perimeter=orthogonalPerimeter;outlineConnect=0;targetShapes=umlLifeline;portConstraint=eastwest;newEdgeStyle={&quot;curved&quot;:0,&quot;rounded&quot;:0};" vertex="1" parent="1">
          <mxGeometry x="565" y="2680" width="10" height="40" as="geometry" />
        </mxCell>
        <mxCell id="0bee53zsupZnmuSa7WSI-174" value="" style="endArrow=none;dashed=1;html=1;rounded=0;entryX=0.52;entryY=1.015;entryDx=0;entryDy=0;entryPerimeter=0;" edge="1" parent="1" target="0bee53zsupZnmuSa7WSI-175">
          <mxGeometry width="50" height="50" relative="1" as="geometry">
            <mxPoint x="360" y="3590" as="sourcePoint" />
            <mxPoint x="360" y="1881" as="targetPoint" />
          </mxGeometry>
        </mxCell>
        <mxCell id="0bee53zsupZnmuSa7WSI-175" value="" style="html=1;points=[[0,0,0,0,5],[0,1,0,0,-5],[1,0,0,0,5],[1,1,0,0,-5]];perimeter=orthogonalPerimeter;outlineConnect=0;targetShapes=umlLifeline;portConstraint=eastwest;newEdgeStyle={&quot;curved&quot;:0,&quot;rounded&quot;:0};" vertex="1" parent="1">
          <mxGeometry x="355" y="2720" width="10" height="30" as="geometry" />
        </mxCell>
        <mxCell id="0bee53zsupZnmuSa7WSI-176" value="Prompt the asnwer for worker" style="html=1;verticalAlign=bottom;endArrow=open;dashed=1;endSize=8;curved=0;rounded=0;" edge="1" parent="1" target="0bee53zsupZnmuSa7WSI-175">
          <mxGeometry relative="1" as="geometry">
            <mxPoint x="570" y="2720" as="sourcePoint" />
            <mxPoint x="490" y="2720" as="targetPoint" />
          </mxGeometry>
        </mxCell>
        <mxCell id="0bee53zsupZnmuSa7WSI-177" value="" style="html=1;points=[[0,0,0,0,5],[0,1,0,0,-5],[1,0,0,0,5],[1,1,0,0,-5]];perimeter=orthogonalPerimeter;outlineConnect=0;targetShapes=umlLifeline;portConstraint=eastwest;newEdgeStyle={&quot;curved&quot;:0,&quot;rounded&quot;:0};" vertex="1" parent="1">
          <mxGeometry x="155" y="2750" width="10" height="80" as="geometry" />
        </mxCell>
        <mxCell id="0bee53zsupZnmuSa7WSI-178" value="Returns the info on dashboard page" style="html=1;verticalAlign=bottom;endArrow=open;dashed=1;endSize=8;curved=0;rounded=0;" edge="1" parent="1" target="0bee53zsupZnmuSa7WSI-177">
          <mxGeometry relative="1" as="geometry">
            <mxPoint x="360" y="2750" as="sourcePoint" />
            <mxPoint x="280" y="2750" as="targetPoint" />
          </mxGeometry>
        </mxCell>
        <mxCell id="0bee53zsupZnmuSa7WSI-179" value="Admin" style="shape=umlActor;verticalLabelPosition=bottom;verticalAlign=top;html=1;" vertex="1" parent="1">
          <mxGeometry x="145" y="2870" width="30" height="60" as="geometry" />
        </mxCell>
        <mxCell id="0bee53zsupZnmuSa7WSI-180" value="" style="endArrow=none;dashed=1;html=1;rounded=0;entryX=0.553;entryY=0.624;entryDx=0;entryDy=0;entryPerimeter=0;" edge="1" parent="1" source="0bee53zsupZnmuSa7WSI-186" target="0bee53zsupZnmuSa7WSI-179">
          <mxGeometry width="50" height="50" relative="1" as="geometry">
            <mxPoint x="160" y="3521.6551050646553" as="sourcePoint" />
            <mxPoint x="190" y="3010" as="targetPoint" />
          </mxGeometry>
        </mxCell>
        <mxCell id="0bee53zsupZnmuSa7WSI-181" value="" style="html=1;points=[[0,0,0,0,5],[0,1,0,0,-5],[1,0,0,0,5],[1,1,0,0,-5]];perimeter=orthogonalPerimeter;outlineConnect=0;targetShapes=umlLifeline;portConstraint=eastwest;newEdgeStyle={&quot;curved&quot;:0,&quot;rounded&quot;:0};" vertex="1" parent="1">
          <mxGeometry x="155" y="2990" width="10" height="30" as="geometry" />
        </mxCell>
        <mxCell id="0bee53zsupZnmuSa7WSI-182" value="" style="html=1;points=[[0,0,0,0,5],[0,1,0,0,-5],[1,0,0,0,5],[1,1,0,0,-5]];perimeter=orthogonalPerimeter;outlineConnect=0;targetShapes=umlLifeline;portConstraint=eastwest;newEdgeStyle={&quot;curved&quot;:0,&quot;rounded&quot;:0};" vertex="1" parent="1">
          <mxGeometry x="355" y="3020" width="10" height="40" as="geometry" />
        </mxCell>
        <mxCell id="0bee53zsupZnmuSa7WSI-183" value="Go to admin&amp;nbsp;&lt;div&gt;dashboard&lt;/div&gt;" style="html=1;verticalAlign=bottom;endArrow=block;curved=0;rounded=0;entryX=0;entryY=0;entryDx=0;entryDy=5;" edge="1" target="0bee53zsupZnmuSa7WSI-182" parent="1" source="0bee53zsupZnmuSa7WSI-181">
          <mxGeometry relative="1" as="geometry">
            <mxPoint x="285" y="3025" as="sourcePoint" />
          </mxGeometry>
        </mxCell>
        <mxCell id="0bee53zsupZnmuSa7WSI-184" value="Sends admin to&lt;div&gt;admin dashboard page&lt;/div&gt;" style="html=1;verticalAlign=bottom;endArrow=open;dashed=1;endSize=8;curved=0;rounded=0;exitX=0;exitY=1;exitDx=0;exitDy=-5;" edge="1" source="0bee53zsupZnmuSa7WSI-182" parent="1" target="0bee53zsupZnmuSa7WSI-186">
          <mxGeometry relative="1" as="geometry">
            <mxPoint x="280" y="3055" as="targetPoint" />
          </mxGeometry>
        </mxCell>
        <mxCell id="0bee53zsupZnmuSa7WSI-185" value="" style="endArrow=none;dashed=1;html=1;rounded=0;entryX=0.553;entryY=0.624;entryDx=0;entryDy=0;entryPerimeter=0;" edge="1" parent="1" source="0bee53zsupZnmuSa7WSI-188" target="0bee53zsupZnmuSa7WSI-186">
          <mxGeometry width="50" height="50" relative="1" as="geometry">
            <mxPoint x="160" y="3521.6551050646553" as="sourcePoint" />
            <mxPoint x="162" y="2907" as="targetPoint" />
          </mxGeometry>
        </mxCell>
        <mxCell id="0bee53zsupZnmuSa7WSI-186" value="" style="html=1;points=[[0,0,0,0,5],[0,1,0,0,-5],[1,0,0,0,5],[1,1,0,0,-5]];perimeter=orthogonalPerimeter;outlineConnect=0;targetShapes=umlLifeline;portConstraint=eastwest;newEdgeStyle={&quot;curved&quot;:0,&quot;rounded&quot;:0};" vertex="1" parent="1">
          <mxGeometry x="155" y="3060" width="10" height="40" as="geometry" />
        </mxCell>
        <mxCell id="0bee53zsupZnmuSa7WSI-187" value="" style="endArrow=none;dashed=1;html=1;rounded=0;entryX=0.553;entryY=0.624;entryDx=0;entryDy=0;entryPerimeter=0;" edge="1" parent="1" source="0bee53zsupZnmuSa7WSI-193" target="0bee53zsupZnmuSa7WSI-188">
          <mxGeometry width="50" height="50" relative="1" as="geometry">
            <mxPoint x="160" y="3521.6551050646553" as="sourcePoint" />
            <mxPoint x="161" y="3085" as="targetPoint" />
          </mxGeometry>
        </mxCell>
        <mxCell id="0bee53zsupZnmuSa7WSI-188" value="" style="html=1;points=[[0,0,0,0,5],[0,1,0,0,-5],[1,0,0,0,5],[1,1,0,0,-5]];perimeter=orthogonalPerimeter;outlineConnect=0;targetShapes=umlLifeline;portConstraint=eastwest;newEdgeStyle={&quot;curved&quot;:0,&quot;rounded&quot;:0};" vertex="1" parent="1">
          <mxGeometry x="155" y="3130" width="10" height="40" as="geometry" />
        </mxCell>
        <mxCell id="0bee53zsupZnmuSa7WSI-189" value="" style="html=1;points=[[0,0,0,0,5],[0,1,0,0,-5],[1,0,0,0,5],[1,1,0,0,-5]];perimeter=orthogonalPerimeter;outlineConnect=0;targetShapes=umlLifeline;portConstraint=eastwest;newEdgeStyle={&quot;curved&quot;:0,&quot;rounded&quot;:0};" vertex="1" parent="1">
          <mxGeometry x="710" y="3130" width="10" height="50" as="geometry" />
        </mxCell>
        <mxCell id="0bee53zsupZnmuSa7WSI-190" value="Queries the database" style="html=1;verticalAlign=bottom;endArrow=block;curved=0;rounded=0;entryX=0;entryY=0;entryDx=0;entryDy=5;" edge="1" target="0bee53zsupZnmuSa7WSI-189" parent="1" source="0bee53zsupZnmuSa7WSI-188">
          <mxGeometry relative="1" as="geometry">
            <mxPoint x="640" y="3135" as="sourcePoint" />
          </mxGeometry>
        </mxCell>
        <mxCell id="0bee53zsupZnmuSa7WSI-191" value="returns answer" style="html=1;verticalAlign=bottom;endArrow=open;dashed=1;endSize=8;curved=0;rounded=0;exitX=0;exitY=1;exitDx=0;exitDy=-5;" edge="1" source="0bee53zsupZnmuSa7WSI-189" parent="1" target="0bee53zsupZnmuSa7WSI-188">
          <mxGeometry relative="1" as="geometry">
            <mxPoint x="640" y="3205" as="targetPoint" />
          </mxGeometry>
        </mxCell>
        <mxCell id="0bee53zsupZnmuSa7WSI-192" value="" style="endArrow=none;dashed=1;html=1;rounded=0;entryX=0.553;entryY=0.624;entryDx=0;entryDy=0;entryPerimeter=0;" edge="1" parent="1" target="0bee53zsupZnmuSa7WSI-193">
          <mxGeometry width="50" height="50" relative="1" as="geometry">
            <mxPoint x="160" y="3610" as="sourcePoint" />
            <mxPoint x="161" y="3155" as="targetPoint" />
          </mxGeometry>
        </mxCell>
        <mxCell id="0bee53zsupZnmuSa7WSI-193" value="" style="html=1;points=[[0,0,0,0,5],[0,1,0,0,-5],[1,0,0,0,5],[1,1,0,0,-5]];perimeter=orthogonalPerimeter;outlineConnect=0;targetShapes=umlLifeline;portConstraint=eastwest;newEdgeStyle={&quot;curved&quot;:0,&quot;rounded&quot;:0};" vertex="1" parent="1">
          <mxGeometry x="155" y="3210" width="10" height="40" as="geometry" />
        </mxCell>
        <mxCell id="0bee53zsupZnmuSa7WSI-194" value="" style="html=1;points=[[0,0,0,0,5],[0,1,0,0,-5],[1,0,0,0,5],[1,1,0,0,-5]];perimeter=orthogonalPerimeter;outlineConnect=0;targetShapes=umlLifeline;portConstraint=eastwest;newEdgeStyle={&quot;curved&quot;:0,&quot;rounded&quot;:0};" vertex="1" parent="1">
          <mxGeometry x="350" y="3240" width="10" height="80" as="geometry" />
        </mxCell>
        <mxCell id="0bee53zsupZnmuSa7WSI-195" value="Add/remove&lt;div&gt;user/flight&lt;/div&gt;" style="html=1;verticalAlign=bottom;startArrow=oval;endArrow=block;startSize=8;curved=0;rounded=0;entryX=0;entryY=0;entryDx=0;entryDy=5;" edge="1" target="0bee53zsupZnmuSa7WSI-194" parent="1" source="0bee53zsupZnmuSa7WSI-193">
          <mxGeometry relative="1" as="geometry">
            <mxPoint x="280" y="3245" as="sourcePoint" />
          </mxGeometry>
        </mxCell>
        <mxCell id="0bee53zsupZnmuSa7WSI-196" value="" style="endArrow=none;dashed=1;html=1;rounded=0;" edge="1" parent="1">
          <mxGeometry width="50" height="50" relative="1" as="geometry">
            <mxPoint x="571" y="3620" as="sourcePoint" />
            <mxPoint x="571" y="3310" as="targetPoint" />
          </mxGeometry>
        </mxCell>
        <mxCell id="0bee53zsupZnmuSa7WSI-198" value="" style="html=1;points=[[0,0,0,0,5],[0,1,0,0,-5],[1,0,0,0,5],[1,1,0,0,-5]];perimeter=orthogonalPerimeter;outlineConnect=0;targetShapes=umlLifeline;portConstraint=eastwest;newEdgeStyle={&quot;curved&quot;:0,&quot;rounded&quot;:0};" vertex="1" parent="1">
          <mxGeometry x="700" y="3400" width="10" height="80" as="geometry" />
        </mxCell>
        <mxCell id="0bee53zsupZnmuSa7WSI-199" value="Updates database" style="html=1;verticalAlign=bottom;endArrow=block;curved=0;rounded=0;entryX=0;entryY=0;entryDx=0;entryDy=5;" edge="1" target="0bee53zsupZnmuSa7WSI-198" parent="1" source="0bee53zsupZnmuSa7WSI-201">
          <mxGeometry relative="1" as="geometry">
            <mxPoint x="630" y="3405" as="sourcePoint" />
          </mxGeometry>
        </mxCell>
        <mxCell id="0bee53zsupZnmuSa7WSI-200" value="Confirmation" style="html=1;verticalAlign=bottom;endArrow=open;dashed=1;endSize=8;curved=0;rounded=0;exitX=0;exitY=1;exitDx=0;exitDy=-5;" edge="1" parent="1" target="0bee53zsupZnmuSa7WSI-204">
          <mxGeometry relative="1" as="geometry">
            <mxPoint x="180" y="3520" as="targetPoint" />
            <mxPoint x="565" y="3519.9999999999995" as="sourcePoint" />
          </mxGeometry>
        </mxCell>
        <mxCell id="0bee53zsupZnmuSa7WSI-201" value="" style="html=1;points=[[0,0,0,0,5],[0,1,0,0,-5],[1,0,0,0,5],[1,1,0,0,-5]];perimeter=orthogonalPerimeter;outlineConnect=0;targetShapes=umlLifeline;portConstraint=eastwest;newEdgeStyle={&quot;curved&quot;:0,&quot;rounded&quot;:0};" vertex="1" parent="1">
          <mxGeometry x="565" y="3320" width="10" height="80" as="geometry" />
        </mxCell>
        <mxCell id="0bee53zsupZnmuSa7WSI-202" value="Sends request" style="html=1;verticalAlign=bottom;startArrow=oval;endArrow=block;startSize=8;curved=0;rounded=0;entryX=0;entryY=0;entryDx=0;entryDy=5;" edge="1" target="0bee53zsupZnmuSa7WSI-201" parent="1" source="0bee53zsupZnmuSa7WSI-194">
          <mxGeometry relative="1" as="geometry">
            <mxPoint x="495" y="3325" as="sourcePoint" />
          </mxGeometry>
        </mxCell>
        <mxCell id="0bee53zsupZnmuSa7WSI-203" value="" style="html=1;points=[[0,0,0,0,5],[0,1,0,0,-5],[1,0,0,0,5],[1,1,0,0,-5]];perimeter=orthogonalPerimeter;outlineConnect=0;targetShapes=umlLifeline;portConstraint=eastwest;newEdgeStyle={&quot;curved&quot;:0,&quot;rounded&quot;:0};" vertex="1" parent="1">
          <mxGeometry x="565" y="3480" width="10" height="40" as="geometry" />
        </mxCell>
        <mxCell id="0bee53zsupZnmuSa7WSI-204" value="" style="html=1;points=[[0,0,0,0,5],[0,1,0,0,-5],[1,0,0,0,5],[1,1,0,0,-5]];perimeter=orthogonalPerimeter;outlineConnect=0;targetShapes=umlLifeline;portConstraint=eastwest;newEdgeStyle={&quot;curved&quot;:0,&quot;rounded&quot;:0};" vertex="1" parent="1">
          <mxGeometry x="155" y="3520" width="10" height="30" as="geometry" />
        </mxCell>
      </root>
    </mxGraphModel>
  </diagram>
</mxfile>
